HIERARCHY
ROOT Hips
{
    OFFSET 0.000000 0.000000 0.000000
    CHANNELS 6 Xposition Yposition Zposition Zrotation Xrotation Yrotation
    JOINT Spine
    {
        OFFSET -0.000000 14.517291 0.000000
        CHANNELS 3 Zrotation Xrotation Yrotation
        JOINT Spine1
        {
            OFFSET -0.000000 37.558300 0.000000
            CHANNELS 3 Zrotation Xrotation Yrotation
            JOINT Neck
            {
                OFFSET -0.000000 37.404057 3.400369
                CHANNELS 3 Zrotation Xrotation Yrotation
                JOINT Head
                {
                    OFFSET -0.000000 24.785618 -3.540803
                    CHANNELS 3 Zrotation Xrotation Yrotation
                    End Site
                    {
                        OFFSET -0.000000 35.408028 0.000000
                    }
                }
            }
            JOINT LeftShoulder
            {
                OFFSET 6.992933 33.973492 -0.192664
                CHANNELS 3 Zrotation Xrotation Yrotation
                JOINT LeftArm
                {
                    OFFSET 21.527611 0.000000 0.000000
                    CHANNELS 3 Zrotation Xrotation Yrotation
                    JOINT LeftForeArm
                    {
                        OFFSET 56.353916 0.000000 0.000000
                        CHANNELS 3 Zrotation Xrotation Yrotation
                        JOINT LeftHand
                        {
                            OFFSET 47.774071 0.000000 0.000000
                            CHANNELS 3 Zrotation Xrotation Yrotation
                            End Site
                            {
                                OFFSET 26.556021 0.000000 0.000000
                            }
                        }
                    }
                }
            }
            JOINT RightShoulder
            {
                OFFSET -7.065357 33.973492 -0.192664
                CHANNELS 3 Zrotation Xrotation Yrotation
                JOINT RightArm
                {
                    OFFSET -21.527611 0.000000 0.000000
                    CHANNELS 3 Zrotation Xrotation Yrotation
                    JOINT RightForeArm
                    {
                        OFFSET -56.353916 0.000000 0.000000
                        CHANNELS 3 Zrotation Xrotation Yrotation
                        JOINT RightHand
                        {
                            OFFSET -47.774071 0.000000 0.000000
                            CHANNELS 3 Zrotation Xrotation Yrotation
                            End Site
                            {
                                OFFSET -26.556021 0.000000 0.000000
                            }
                        }
                    }
                }
            }
        }
    }
    JOINT LeftUpLeg
    {
        OFFSET 17.704014 0.000000 0.000000
        CHANNELS 3 Zrotation Xrotation Yrotation
        JOINT LeftLeg
        {
            OFFSET -0.000000 -81.181816 0.000000
            CHANNELS 3 Zrotation Xrotation Yrotation
            JOINT LeftFoot
            {
                OFFSET -0.000000 -62.821102 0.000000
                CHANNELS 3 Zrotation Xrotation Yrotation
                JOINT LeftToeBase
                {
                    OFFSET -0.000000 -11.507608 26.556021
                    CHANNELS 3 Zrotation Xrotation Yrotation
                    End Site
                    {
                        OFFSET -0.000000 0.000000 7.081605
                    }
                }
            }
        }
    }
    JOINT RightUpLeg
    {
        OFFSET -17.704014 0.000000 0.000000
        CHANNELS 3 Zrotation Xrotation Yrotation
        JOINT RightLeg
        {
            OFFSET -0.000000 -81.181816 0.000000
            CHANNELS 3 Zrotation Xrotation Yrotation
            JOINT RightFoot
            {
                OFFSET -0.000000 -62.821102 0.000000
                CHANNELS 3 Zrotation Xrotation Yrotation
                JOINT RightToeBase
                {
                    OFFSET -0.000000 -11.507608 26.556021
                    CHANNELS 3 Zrotation Xrotation Yrotation
                    End Site
                    {
                        OFFSET -0.000000 0.000000 7.081605
                    }
                }
            }
        }
    }
}
MOTION
Frames:    10
Frame Time:    0.008333
0.556159    155.245590    -25.398087    -0.648976    -4.051253    -38.488190    6.271266    1.417661    7.607872    -4.354499    5.528646    2.771282    17.576302    -5.397861    11.407807    -11.635118    9.107532    7.668131    0.256645    9.288776    -15.556218    -34.752689    12.687248    -46.118164    41.351738    -44.960056    -35.703201    -17.733170    -30.185982    -29.791965    -10.211324    2.908257    9.308148    37.268600    18.248335    97.127327    -18.224564    -37.260914    70.938446    20.448919    -21.705080    26.176373    16.538965    -16.551609    6.163926    -14.498962    23.400244    3.325790    -3.708570    -2.621198    34.926369    0.000000    0.000000    0.000000    -14.054055    -3.066684    -5.355395    6.666600    35.404507    0.249414    3.603824    -25.150499    -13.314049    0.000000    0.000000    0.000000    
0.539108    155.242691    -25.387045    -0.642218    -4.057989    -38.496449    6.265296    1.414473    7.601732    -4.345905    5.532036    2.768849    17.578856    -5.404335    11.419036    -11.635810    9.102680    7.677784    0.259604    9.271154    -15.552032    -34.712547    12.744442    -46.115730    41.429745    -44.977066    -35.634560    -17.747082    -30.202379    -29.799351    -10.212584    2.901953    9.312443    37.273800    18.224297    97.122925    -18.202690    -37.245308    70.946556    20.409163    -21.709858    26.170504    16.536350    -16.540573    6.156683    -14.511817    23.399242    3.339960    -3.709576    -2.636014    34.937584    0.000000    0.000000    0.000000    -14.062242    -3.063591    -5.334038    6.672537    35.412960    0.246678    3.543329    -25.126083    -13.263356    0.000000    0.000000    0.000000    
0.523255    155.237000    -25.378307    -0.634207    -4.059923    -38.499512    6.267372    1.414692    7.585384    -4.344122    5.524068    2.763052    17.578350    -5.399642    11.426726    -11.637856    9.086647    7.684877    0.255218    9.246651    -15.540915    -34.686321    12.777013    -46.095619    41.450539    -44.983959    -35.615501    -17.746988    -30.211155    -29.798962    -10.217772    2.895357    9.325480    37.280453    18.206182    97.121048    -18.208807    -37.225006    70.942947    20.372572    -21.688206    26.185549    16.536469    -16.541666    6.150208    -14.525906    23.408905    3.336273    -3.715502    -2.654535    34.968048    0.000000    0.000000    0.000000    -14.062711    -3.066989    -5.346220    6.654922    35.426323    0.268181    3.598828    -25.180756    -13.322738    0.000000    0.000000    0.000000    
0.505275    155.230774    -25.365025    -0.630416    -4.069545    -38.509407    6.271105    1.417290    7.576323    -4.351177    5.524585    2.760429    17.591318    -5.391887    11.439775    -11.649835    9.061976    7.693802    0.264126    9.238166    -15.537675    -34.640915    12.822868    -46.090168    41.523895    -45.016205    -35.556206    -17.747835    -30.249660    -29.790588    -10.212619    2.885978    9.339155    37.289211    18.182863    97.111954    -18.216619    -37.200165    70.941299    20.358419    -21.657471    26.185291    16.537321    -16.525455    6.150166    -14.539620    23.410278    3.329242    -3.711231    -2.671576    34.973392    0.000000    0.000000    0.000000    -14.067175    -3.061413    -5.327514    6.656162    35.437618    0.247928    3.605371    -25.204351    -13.318395    0.000000    0.000000    0.000000    
0.487905    155.223267    -25.354296    -0.620031    -4.075513    -38.512287    6.265698    1.416222    7.564456    -4.349578    5.519593    2.756165    17.568588    -5.393107    11.437320    -11.613239    9.042393    7.695952    0.263670    9.216012    -15.532825    -34.637035    12.830136    -46.074429    41.530983    -45.016701    -35.556915    -17.768948    -30.240093    -29.808815    -10.216374    2.879303    9.343493    37.308064    18.166431    97.115334    -18.217249    -37.181000    70.948051    20.360432    -21.629484    26.203808    16.532850    -16.526234    6.152912    -14.546581    23.427544    3.328580    -3.714358    -2.690786    34.974262    0.000000    0.000000    0.000000    -14.077068    -3.061168    -5.321278    6.656508    35.449867    0.226587    3.605697    -25.228142    -13.294094    0.000000    0.000000    0.000000    
0.469959    155.215408    -25.343483    -0.614805    -4.077798    -38.512470    6.267373    1.416214    7.557715    -4.353020    5.508083    2.753645    17.582890    -5.381447    11.439145    -11.624179    9.016084    7.693391    0.271796    9.218481    -15.543007    -34.623951    12.830000    -46.070732    41.568413    -45.019726    -35.528660    -17.829821    -30.225698    -29.823128    -10.205354    2.867938    9.346875    37.329540    18.159815    97.098946    -18.242905    -37.161240    70.944199    20.394592    -21.578583    26.222832    16.536123    -16.529411    6.155635    -14.561625    23.447392    3.336958    -3.707668    -2.707751    34.982391    0.000000    0.000000    0.000000    -14.081109    -3.060036    -5.308875    6.669198    35.463619    0.194593    3.599501    -25.247797    -13.276711    0.000000    0.000000    0.000000    
0.449577    155.207703    -25.333553    -0.611982    -4.085321    -38.510960    6.261880    1.424416    7.547355    -4.351033    5.491841    2.749608    17.566902    -5.379743    11.433706    -11.587866    8.999523    7.691813    0.278520    9.225316    -15.534651    -34.617043    12.817373    -46.086224    41.559406    -45.016918    -35.529835    -17.829538    -30.224228    -29.826765    -10.189493    2.859516    9.343678    37.316288    18.159681    97.104263    -18.264318    -37.179413    70.940926    20.451134    -21.564081    26.273348    16.539461    -16.524616    6.155650    -14.569221    23.464329    3.331916    -3.709576    -2.721727    34.972595    0.000000    0.000000    0.000000    -14.081208    -3.050358    -5.317067    6.657979    35.471722    0.201306    3.601110    -25.268398    -13.279532    0.000000    0.000000    0.000000    
0.430641    155.198151    -25.322987    -0.602634    -4.085878    -38.510410    6.258449    1.413386    7.544607    -4.350671    5.488574    2.748343    17.580505    -5.362787    11.431344    -11.598832    8.968353    7.685338    0.275610    9.221924    -15.546251    -34.617702    12.790034    -46.079800    41.545952    -44.996475    -35.538746    -17.850897    -30.194073    -29.834734    -10.180822    2.852732    9.342789    37.322483    18.148495    97.095314    -18.259153    -37.182373    70.961044    20.481825    -21.556000    26.294279    16.543842    -16.530500    6.161605    -14.581618    23.488379    3.304005    -3.706294    -2.745661    34.991909    0.000000    0.000000    0.000000    -14.085400    -3.058406    -5.318177    6.652788    35.497864    0.219304    3.599185    -25.288975    -13.297058    0.000000    0.000000    0.000000    
0.409390    155.188675    -25.312836    -0.603445    -4.086782    -38.504848    6.260006    1.413173    7.532004    -4.340939    5.481700    2.743430    17.555727    -5.375668    11.427772    -11.565939    8.968635    7.686729    0.270920    9.212242    -15.538405    -34.615864    12.799618    -46.083393    41.568005    -45.001820    -35.526123    -17.872002    -30.194515    -29.825451    -10.187821    2.852575    9.326791    37.321609    18.143549    97.118584    -18.263987    -37.190823    70.963409    20.501656    -21.556028    26.302004    16.553520    -16.535341    6.166036    -14.592832    23.516638    3.330371    -3.712649    -2.774100    34.960041    0.000000    0.000000    0.000000    -14.080243    -3.049656    -5.327085    6.645345    35.508575    0.233711    3.600129    -25.314930    -13.310391    0.000000    0.000000    0.000000    
0.387710    155.180130    -25.299543    -0.603450    -4.091588    -38.500511    6.268723    1.405749    7.523439    -4.353911    5.481937    2.741099    17.554279    -5.360271    11.421903    -11.546021    8.942222    7.681851    0.276841    9.214850    -15.541756    -34.605118    12.800539    -46.088448    41.594849    -45.001743    -35.497345    -17.857866    -30.201405    -29.813744    -10.173158    2.846083    9.325367    37.328896    18.140566    97.117928    -18.244671    -37.204365    70.984070    20.488293    -21.582678    26.306156    16.560822    -16.533617    6.172124    -14.611050    23.537476    3.337183    -3.699401    -2.788607    34.953213    0.000000    0.000000    0.000000    -14.080403    -3.042794    -5.327645    6.641707    35.529804    0.242204    3.550447    -25.303738    -13.277593    0.000000    0.000000    0.000000    
